# xmcd CD database file
#
# Track frame offsets:
#	182
#	12255
#	27630
#	52807
#	63427
#	78632
#	88857
#	102110
#	114060
#	125295
#
# Disc length: 1815 seconds
#
# Revision: 0
# Processed by: cddbd v1.4PL0 Copyright (c) Steve Scherf et al.
# Submitted via: CDex 1.40Beta9
#
DISCID=7507150a
DTITLE=Howlin' Wolf - Poor Boy
DYEAR=1994
DGENRE=Blues
TTITLE0=Cause Of It All
TTITLE1=The Killing Floor
TTITLE2=Little Red Rooster
TTITLE3=Built For Comfort
TTITLE4=Commit A Crime
TTITLE5=Do The Do
TTITLE6=Worried About You
TTITLE7=Louise
TTITLE8=My Country Sugar Mama
TTITLE9=Wang, Dang Doodle
EXTD=YEAR: 1994 ID3G: 0
EXTT0=
EXTT1=
EXTT2=
EXTT3=
EXTT4=
EXTT5=
EXTT6=
EXTT7=
EXTT8=
EXTT9=
PLAYORDER=
